<svg xmlns="http://www.w3.org/2000/svg" viewBox="0 0 533.5 544.3">
<path fill="#4285F4" d="M533.5 278.4c0-18.6-1.5-37.2-4.7-55.4H272v104.8h146.9c-6.4 34.6-25.7 63.8-54.9 83.3v68h88.7c52-47.9 80.8-118.4 80.8-200.7z"/>
<path fill="#34A853" d="M272 544.3c73.6 0 135.4-24.3 180.6-66.1l-88.7-68c-24.7 16.6-56.3 26.4-91.9 26.4-70.7 0-130.6-47.7-152.1-111.7H27.7v70.1C72.6 485.5 166.2 544.3 272 544.3z"/>
<path fill="#FBBC05" d="M119.9 324.9c-10.8-32-10.8-66.7 0-98.7V156.1H27.7c-38.4 76.6-38.4 167.6 0 244.2l92.2-70.1z"/>
<path fill="#EA4335" d="M272 107.7c37.9-.6 74.3 13.8 102.2 40.3l76.2-76.2C405.9 24.1 342.7-1.3 272 0 166.2 0 72.6 58.8 27.7 156.1l92.2 70.1C141.4 155.4 201.3 107.7 272 107.7z"/>
</svg>